<svg width="41" height="40" viewBox="0 0 41 40" fill="none" xmlns="http://www.w3.org/2000/svg">
<rect width="40.7815" height="39.3752" rx="12.6563" fill="#E77373"/>
<rect x="0.361541" y="0.361541" width="40.0584" height="38.6522" rx="12.2948" stroke="#C25E5E" stroke-opacity="0.68" stroke-width="0.723082"/>
<path d="M11.8499 17.5294C12.3851 17.2668 13.3792 16.8322 13.9223 16.6261C14.0334 16.9155 14.2144 17.2921 14.3426 17.5806L15.1318 19.3625L17.3472 24.3662C17.7748 25.3311 18.2473 26.3501 18.6427 27.321C18.2635 27.4816 17.8669 27.6658 17.4884 27.8335C17.1668 27.9793 16.8461 28.1319 16.5164 28.259C15.9186 28.4897 15.2173 28.2907 14.9249 27.6926C14.6493 27.1287 14.4038 26.5467 14.1501 25.972L12.7312 22.7662L11.6385 20.3013C11.5012 19.9912 11.1835 19.3207 11.0981 19.0339C11.0293 18.7953 11.0315 18.5418 11.1044 18.3044C11.2285 17.9025 11.503 17.7113 11.8499 17.5294Z" fill="white"/>
<path d="M23.8442 12.2242C24.4746 11.9213 25.1481 11.6421 25.7908 11.3675C26.3429 11.1317 27.0533 11.3081 27.3476 11.8586C27.5778 12.2889 27.7739 12.7711 27.9736 13.2237L29.1118 15.7982L30.4789 18.8857C30.7098 19.4062 30.965 19.9443 31.1726 20.4731C31.3218 20.8532 31.2706 21.1716 31.0954 21.5302C30.7657 22.073 30.2276 22.1744 29.6911 22.4382C29.2844 22.6381 28.7836 22.802 28.3947 23.0248C28.3361 22.8269 28.103 22.3335 28.0085 22.1204L27.2497 20.4094L24.638 14.5142L23.951 12.9555C23.9023 12.8446 23.7051 12.4252 23.6839 12.3433C23.7293 12.2649 23.7496 12.2741 23.8442 12.2242Z" fill="white"/>
<path d="M16.4287 19.5949C16.6928 19.5008 17.0598 19.3237 17.3271 19.2054L18.9699 18.4779L24.184 16.1708C24.7473 17.4094 25.3548 18.7575 25.8817 20.0095L18.1156 23.4527C18.0125 23.1446 17.8041 22.7486 17.675 22.4347C17.2961 21.5131 16.7758 20.514 16.4287 19.5949Z" fill="white"/>
<path d="M28.97 12.8103C29.8778 12.3971 30.2543 12.2488 31.0392 12.9856L32.7272 16.7973C32.7557 17.9158 32.3694 18.0526 31.4634 18.4621C31.2504 17.9086 30.8974 17.1702 30.6493 16.6106L28.97 12.8103Z" fill="white"/>
<path d="M9.44547 22.5188C9.45761 22.4646 9.45204 22.3399 9.45326 22.2814C9.46867 21.5386 9.82822 21.2743 10.4509 21.0126C10.4951 21.0091 10.5903 20.9902 10.6054 21.0211C11.4169 22.6866 12.1244 24.4277 12.893 26.1168C12.9585 26.2607 13.0037 26.4466 13.0326 26.5646C12.8591 26.6384 12.5783 26.7417 12.4338 26.85C12.399 26.8572 12.364 26.8633 12.3289 26.8684C11.7442 26.9515 11.5362 26.6751 11.16 26.3904L9.44547 22.5188Z" fill="white"/>
<path d="M10.4541 21.0115C10.5317 20.9745 10.6368 20.9118 10.717 20.9225C10.8012 21.0158 11.214 21.9989 11.2853 22.16L12.5422 25.0011C12.7519 25.475 12.9991 26.0768 13.2283 26.5343C12.957 26.6636 12.7309 26.7718 12.4369 26.8489C12.5814 26.7406 12.8622 26.6373 13.0357 26.5635C13.0068 26.4455 12.9616 26.2597 12.8961 26.1157C12.1275 24.4266 11.42 22.6855 10.6085 21.02C10.5934 20.9891 10.4982 21.008 10.4541 21.0115Z" fill="black" fill-opacity="0.976471"/>
</svg>
