<svg width="41" height="40" viewBox="0 0 41 40" fill="none" xmlns="http://www.w3.org/2000/svg">
<rect x="0.361541" y="0.361541" width="40.0584" height="38.6522" rx="12.2948" fill="#5F2EF9" stroke="#9076E2" stroke-width="0.723082"/>
<path d="M11.8509 17.5294C12.3861 17.2668 13.3801 16.8322 13.9233 16.6261C14.0344 16.9155 14.2154 17.2921 14.3435 17.5806L15.1328 19.3625L17.3482 24.3662C17.7758 25.3311 18.2483 26.3501 18.6436 27.321C18.2645 27.4816 17.8679 27.6658 17.4894 27.8335C17.1678 27.9793 16.847 28.1319 16.5174 28.259C15.9196 28.4897 15.2183 28.2907 14.9259 27.6926C14.6503 27.1287 14.4048 26.5467 14.1511 25.972L12.7322 22.7662L11.6395 20.3013C11.5022 19.9912 11.1845 19.3207 11.0991 19.0339C11.0303 18.7953 11.0324 18.5418 11.1054 18.3044C11.2295 17.9025 11.504 17.7113 11.8509 17.5294Z" fill="white"/>
<path d="M23.8452 12.2242C24.4755 11.9213 25.1491 11.6421 25.7918 11.3675C26.3439 11.1317 27.0542 11.3081 27.3486 11.8586C27.5787 12.2889 27.7749 12.7711 27.9746 13.2237L29.1128 15.7982L30.4799 18.8857C30.7108 19.4062 30.966 19.9443 31.1736 20.4731C31.3227 20.8532 31.2716 21.1716 31.0963 21.5302C30.7667 22.073 30.2286 22.1744 29.6921 22.4382C29.2854 22.6381 28.7845 22.802 28.3957 23.0248C28.337 22.8269 28.104 22.3335 28.0095 22.1204L27.2507 20.4094L24.639 14.5142L23.952 12.9555C23.9033 12.8446 23.706 12.4252 23.6849 12.3433C23.7303 12.2649 23.7506 12.2741 23.8452 12.2242Z" fill="white"/>
<path d="M16.4297 19.5949C16.6938 19.5008 17.0608 19.3237 17.3281 19.2054L18.9708 18.4779L24.185 16.1708C24.7483 17.4094 25.3558 18.7575 25.8827 20.0095L18.1165 23.4527C18.0135 23.1446 17.805 22.7486 17.676 22.4347C17.2971 21.5131 16.7768 20.514 16.4297 19.5949Z" fill="white"/>
<path d="M28.9705 12.8103C29.8783 12.3971 30.2548 12.2488 31.0396 12.9856L32.7277 16.7973C32.7561 17.9158 32.3699 18.0526 31.4639 18.4621C31.2509 17.9086 30.8979 17.1702 30.6498 16.6106L28.9705 12.8103Z" fill="white"/>
<path d="M9.44596 22.5188C9.4581 22.4646 9.45253 22.3399 9.45375 22.2814C9.46915 21.5386 9.82871 21.2743 10.4514 21.0126C10.4956 21.0091 10.5908 20.9902 10.6059 21.0211C11.4173 22.6866 12.1249 24.4277 12.8934 26.1168C12.9589 26.2607 13.0042 26.4466 13.033 26.5646C12.8596 26.6384 12.5788 26.7417 12.4343 26.85C12.3995 26.8572 12.3645 26.8633 12.3294 26.8684C11.7447 26.9515 11.5367 26.6751 11.1605 26.3904L9.44596 22.5188Z" fill="white"/>
<path d="M10.4545 21.0115C10.5322 20.9745 10.6373 20.9118 10.7175 20.9225C10.8017 21.0158 11.2145 21.9989 11.2858 22.16L12.5427 25.0011C12.7524 25.475 12.9996 26.0768 13.2288 26.5343C12.9575 26.6636 12.7314 26.7718 12.4374 26.8489C12.5819 26.7406 12.8627 26.6373 13.0362 26.5635C13.0073 26.4455 12.9621 26.2597 12.8966 26.1157C12.128 24.4266 11.4205 22.6855 10.609 21.02C10.5939 20.9891 10.4987 21.008 10.4545 21.0115Z" fill="black" fill-opacity="0.976471"/>
</svg>
