<svg width="41" height="40" viewBox="0 0 41 40" fill="none" xmlns="http://www.w3.org/2000/svg">
<rect width="40.7815" height="39.3752" rx="12.6563" fill="#E77373"/>
<rect x="0.361541" y="0.361541" width="40.0584" height="38.6522" rx="12.2948" stroke="#C25E5E" stroke-opacity="0.68" stroke-width="0.723082"/>
<path fill-rule="evenodd" clip-rule="evenodd" d="M15.6743 13.1135V12.6014C15.6743 11.379 16.1599 10.2066 17.0243 9.3422C17.8887 8.4778 19.0611 7.99219 20.2835 7.99219C21.506 7.99219 22.6783 8.4778 23.5427 9.3422C24.4071 10.2066 24.8927 11.379 24.8927 12.6014V13.1135H27.4534C28.0188 13.1135 28.4777 13.5734 28.4777 14.145V26.4372C28.4777 27.5639 27.561 28.4776 26.4353 28.4776H14.1318C13.5904 28.4776 13.0712 28.2627 12.6883 27.8801C12.3053 27.4975 12.0899 26.9786 12.0894 26.4372V14.146C12.0894 13.5745 12.5452 13.1135 13.1136 13.1135H15.6743ZM17.2107 13.1135H23.3563V12.6014C23.3563 11.7864 23.0326 11.0049 22.4563 10.4286C21.8801 9.85233 21.0985 9.52859 20.2835 9.52859C19.4686 9.52859 18.687 9.85233 18.1107 10.4286C17.5344 11.0049 17.2107 11.7864 17.2107 12.6014V13.1135ZM15.6743 13.1135V17.2106H17.2107V13.1135H15.6743ZM23.3563 13.1135V17.2106H24.8927V13.1135H23.3563Z" fill="white"/>
</svg>
