<svg width="41" height="40" viewBox="0 0 41 40" fill="none" xmlns="http://www.w3.org/2000/svg">
<rect x="0.361541" y="0.361541" width="40.0584" height="38.6522" rx="12.2948" fill="#5F2EF9" stroke="#9076E2" stroke-width="0.723082"/>
<path d="M9.35645 11.3688C9.51943 11.0844 9.59422 10.8555 9.96958 10.7697C10.3226 10.7003 10.7173 10.7271 11.0776 10.7311C11.6275 10.7373 12.1771 10.712 12.7248 10.7389C13.4274 10.7734 13.5435 11.4339 13.7209 11.9731L14.1194 13.1858C14.2553 13.5991 14.3264 14.0569 14.8457 14.0722C15.186 14.0823 15.5187 14.0822 15.8592 14.0821L17.9523 14.0809L25.9672 14.0811L27.5036 14.0796C28.0536 14.079 28.9196 13.952 29.1217 14.6813C29.1676 14.8463 29.1366 15.0538 29.095 15.2185C28.9564 15.674 28.7964 16.1354 28.6455 16.5872L27.7708 19.2045L27.1989 20.9283C27.1285 21.1409 27.0337 21.395 26.9741 21.604C26.7053 22.5461 26.2303 22.4552 25.3952 22.4553L24.0246 22.4549L18.7443 22.4551C18.3687 22.4551 17.987 22.4516 17.6165 22.4523C17.3427 22.4528 16.8143 22.3985 16.6809 22.6963C16.5332 23.0261 16.3151 23.644 16.5169 23.9761C16.6094 24.0378 16.7078 24.1027 16.8216 24.1094C17.1166 24.1269 17.4282 24.1212 17.7238 24.121L19.428 24.1193L25.0789 24.1198L26.1635 24.1174C26.4737 24.1163 26.8801 24.0864 27.1755 24.1703C28.0301 24.4131 27.8973 25.6882 27.0332 25.787C26.6012 25.8364 26.0792 25.8061 25.6417 25.8043L23.029 25.8063L18.81 25.8065L17.533 25.8063C16.8383 25.806 16.2544 25.8391 15.6652 25.4027C15.1979 25.0566 14.8802 24.6015 14.781 24.0235C14.6093 23.1167 15.189 22.3315 15.0716 21.4661C15.0228 21.1066 14.7766 20.4512 14.6539 20.0853L13.939 17.9368L12.8044 14.5305C12.6141 13.9593 12.4298 13.395 12.2298 12.8183C12.0518 12.3049 11.5407 12.4351 11.1031 12.4146C10.6582 12.3939 10.0551 12.5205 9.66674 12.2287C9.46851 12.0798 9.47169 11.9356 9.35645 11.781V11.3688Z" fill="white"/>
<path d="M15.75 29.9765C15.6486 29.9298 15.5352 29.8861 15.429 29.8494C15.0022 29.7026 14.6371 29.3166 14.4817 28.8967C14.3277 28.469 14.3474 27.9979 14.5365 27.5845C14.7198 27.1894 15.0532 26.8838 15.4627 26.7355C15.888 26.58 16.358 26.6018 16.7671 26.7961C17.1681 26.9833 17.4769 27.3239 17.6239 27.7413C17.7713 28.1653 17.7446 28.6305 17.5496 29.0349C17.3737 29.3967 17.0713 29.6941 16.6967 29.8392C16.6501 29.8573 16.3778 29.9604 16.3538 29.9765H15.75Z" fill="white"/>
<path d="M25.79 29.9764C25.6887 29.9298 25.5752 29.8861 25.469 29.8494C25.0422 29.7025 24.6771 29.3166 24.5217 28.8967C24.3677 28.469 24.3874 27.9979 24.5766 27.5846C24.7598 27.1894 25.0932 26.8837 25.5028 26.7355C25.9281 26.58 26.3981 26.6018 26.8072 26.7961C27.2081 26.9833 27.5168 27.3239 27.6639 27.7412C27.8114 28.1653 27.7847 28.6305 27.5897 29.0349C27.4137 29.3967 27.1114 29.6941 26.7367 29.8392C26.6901 29.8572 26.4178 29.9604 26.3938 29.9764H25.79Z" fill="white"/>
</svg>
