<svg width="41" height="40" viewBox="0 0 41 40" fill="none" xmlns="http://www.w3.org/2000/svg">
<rect width="40.7815" height="39.3752" rx="12.6563" fill="#E77373"/>
<rect x="0.361541" y="0.361541" width="40.0584" height="38.6522" rx="12.2948" stroke="#C25E5E" stroke-opacity="0.68" stroke-width="0.723082"/>
<path d="M9.35645 11.3688C9.51943 11.0844 9.59422 10.8555 9.96958 10.7697C10.3226 10.7003 10.7173 10.7271 11.0776 10.7311C11.6275 10.7373 12.1771 10.712 12.7248 10.7389C13.4274 10.7734 13.5435 11.4339 13.7209 11.9731L14.1194 13.1858C14.2553 13.5991 14.3264 14.0569 14.8457 14.0722C15.186 14.0823 15.5187 14.0822 15.8592 14.0821L17.9523 14.0809L25.9672 14.0811L27.5036 14.0796C28.0536 14.079 28.9196 13.952 29.1217 14.6813C29.1676 14.8463 29.1366 15.0538 29.095 15.2185C28.9564 15.674 28.7964 16.1354 28.6455 16.5872L27.7708 19.2045L27.1989 20.9283C27.1285 21.1409 27.0337 21.395 26.9741 21.604C26.7053 22.5461 26.2303 22.4552 25.3952 22.4553L24.0246 22.4549L18.7443 22.4551C18.3687 22.4551 17.987 22.4516 17.6165 22.4523C17.3427 22.4528 16.8143 22.3985 16.6809 22.6963C16.5332 23.0261 16.3151 23.644 16.5169 23.9761C16.6094 24.0378 16.7078 24.1027 16.8216 24.1094C17.1166 24.1269 17.4282 24.1212 17.7238 24.121L19.428 24.1193L25.0789 24.1198L26.1635 24.1174C26.4737 24.1163 26.8801 24.0864 27.1755 24.1703C28.0301 24.4131 27.8973 25.6882 27.0332 25.787C26.6012 25.8364 26.0792 25.8061 25.6417 25.8043L23.029 25.8063L18.81 25.8065L17.533 25.8063C16.8383 25.806 16.2544 25.8391 15.6652 25.4027C15.1979 25.0566 14.8802 24.6015 14.781 24.0235C14.6093 23.1167 15.189 22.3315 15.0716 21.4661C15.0228 21.1066 14.7766 20.4512 14.6539 20.0853L13.939 17.9368L12.8044 14.5305C12.6141 13.9593 12.4298 13.395 12.2298 12.8183C12.0518 12.3049 11.5407 12.4351 11.1031 12.4146C10.6582 12.3939 10.0551 12.5205 9.66674 12.2287C9.46851 12.0798 9.47169 11.9356 9.35645 11.781V11.3688Z" fill="white"/>
<path d="M11.0771 10.7539C11.6291 10.7601 12.1763 10.7348 12.7236 10.7617C12.8956 10.7702 13.0309 10.8169 13.1396 10.8896C13.2483 10.9624 13.3322 11.0625 13.4004 11.1787C13.5376 11.4127 13.6098 11.7084 13.6992 11.9805L14.0977 13.1934L14.1953 13.5039C14.2294 13.6057 14.2683 13.704 14.3193 13.79C14.3705 13.8762 14.435 13.951 14.5205 14.0049C14.6061 14.0587 14.7118 14.0908 14.8447 14.0947C15.1854 14.1048 15.5189 14.1046 15.8594 14.1045L17.9521 14.1035H25.9668L27.5039 14.1025C27.7818 14.1022 28.131 14.0702 28.4385 14.1289C28.5915 14.1582 28.7322 14.2101 28.8467 14.2979C28.9608 14.3854 29.0503 14.5097 29.0996 14.6875C29.1437 14.8461 29.1145 15.048 29.0732 15.2119C28.9347 15.6669 28.775 16.1279 28.624 16.5801L27.749 19.1973L27.1777 20.9209C27.1078 21.1321 27.0119 21.3881 26.9521 21.5977C26.8188 22.065 26.636 22.2698 26.3887 22.3613C26.2637 22.4075 26.1202 22.4255 25.9551 22.4316C25.7896 22.4378 25.605 22.4326 25.3955 22.4326H18.7441C18.3691 22.4326 17.9865 22.429 17.6162 22.4297C17.4816 22.4299 17.2776 22.4165 17.0928 22.4404C16.9088 22.4643 16.7321 22.527 16.6602 22.6875C16.586 22.8532 16.4935 23.0917 16.4453 23.3311C16.3974 23.5693 16.3915 23.8146 16.4971 23.9883L16.4951 23.9893L16.5039 23.9951C16.5955 24.0563 16.6993 24.1247 16.8203 24.1318C17.1161 24.1493 17.4287 24.1438 17.7236 24.1436L19.4277 24.1416L25.0791 24.1426L26.1631 24.1396C26.3198 24.1391 26.4974 24.1319 26.6748 24.1348C26.8514 24.1376 27.0242 24.1513 27.1689 24.1924C27.5837 24.3102 27.76 24.6776 27.7266 25.0303C27.693 25.3833 27.4496 25.7167 27.0303 25.7646C26.6001 25.8138 26.0809 25.783 25.6416 25.7812L23.0293 25.7832L18.8096 25.7842L17.5332 25.7832C16.8368 25.7829 16.2608 25.8158 15.6787 25.3848C15.2734 25.0846 14.9827 24.702 14.8506 24.2285L14.8037 24.0195C14.719 23.5719 14.8189 23.1534 14.9277 22.7354C15.0362 22.3187 15.1532 21.9009 15.0938 21.4629C15.069 21.2809 14.995 21.0257 14.9121 20.7715L14.6758 20.0781L13.9609 17.9297L12.8262 14.5234C12.636 13.9524 12.451 13.3874 12.251 12.8105C12.2052 12.6787 12.1375 12.5867 12.0537 12.5234C11.9701 12.4603 11.8722 12.4267 11.7676 12.4092C11.6631 12.3917 11.5509 12.3903 11.4385 12.3916C11.3255 12.3929 11.2129 12.3966 11.1045 12.3916C10.9923 12.3864 10.87 12.3911 10.7451 12.3955C10.6198 12.3999 10.4909 12.4041 10.3643 12.4004C10.1109 12.393 9.86904 12.3523 9.68066 12.2109C9.58496 12.139 9.53825 12.068 9.50098 11.9961C9.46499 11.9267 9.43506 11.8506 9.37891 11.7734V11.374C9.46 11.2319 9.5174 11.1089 9.60059 11.0088C9.68329 10.9093 9.7918 10.8338 9.97461 10.792L9.97363 10.791C10.3235 10.7222 10.7149 10.7498 11.0771 10.7539Z" stroke="#C25E5E" stroke-opacity="0.68" stroke-width="0.0453453"/>
<path d="M15.75 29.9765C15.6486 29.9298 15.5352 29.8861 15.429 29.8494C15.0022 29.7026 14.6371 29.3166 14.4817 28.8967C14.3277 28.469 14.3474 27.9979 14.5365 27.5845C14.7198 27.1894 15.0532 26.8838 15.4627 26.7355C15.888 26.58 16.358 26.6018 16.7671 26.7961C17.1681 26.9833 17.4769 27.3239 17.6239 27.7413C17.7713 28.1653 17.7446 28.6305 17.5496 29.0349C17.3737 29.3967 17.0713 29.6941 16.6967 29.8392C16.6501 29.8573 16.3778 29.9604 16.3538 29.9765H15.75Z" fill="white"/>
<path d="M15.4707 26.7568C15.8903 26.6035 16.3543 26.6248 16.7578 26.8164C17.1037 26.9779 17.3802 27.2553 17.541 27.5977L17.6025 27.749C17.7478 28.1673 17.7216 28.6265 17.5293 29.0254C17.3556 29.3824 17.0571 29.6756 16.6885 29.8184C16.6653 29.8273 16.5855 29.8577 16.5088 29.8877C16.4703 29.9027 16.4322 29.9174 16.4023 29.9297C16.3874 29.9358 16.3744 29.9418 16.3643 29.9463C16.3585 29.9489 16.3532 29.9518 16.3486 29.9541H15.7549C15.6538 29.9078 15.5416 29.8644 15.4365 29.8281C15.0168 29.6837 14.6562 29.3029 14.5029 28.8887C14.3511 28.4666 14.371 28.0016 14.5576 27.5938L14.5566 27.5928C14.7148 27.2523 14.9867 26.9792 15.3223 26.8184L15.4707 26.7568Z" stroke="#C25E5E" stroke-opacity="0.68" stroke-width="0.0453453"/>
<path d="M25.79 29.9764C25.6887 29.9298 25.5752 29.8861 25.469 29.8494C25.0422 29.7025 24.6771 29.3166 24.5217 28.8967C24.3677 28.469 24.3874 27.9979 24.5766 27.5846C24.7598 27.1894 25.0932 26.8837 25.5028 26.7355C25.9281 26.58 26.3981 26.6018 26.8072 26.7961C27.2081 26.9833 27.5168 27.3239 27.6639 27.7412C27.8114 28.1653 27.7847 28.6305 27.5897 29.0349C27.4137 29.3967 27.1114 29.6941 26.7367 29.8392C26.6901 29.8572 26.4178 29.9604 26.3938 29.9764H25.79Z" fill="white"/>
<path d="M25.5107 26.7568C25.9303 26.6035 26.3943 26.6248 26.7979 26.8164C27.1932 27.0011 27.4975 27.3375 27.6426 27.749C27.7879 28.1673 27.7617 28.6265 27.5693 29.0254C27.3956 29.3824 27.0972 29.6756 26.7285 29.8184C26.7053 29.8273 26.6255 29.8577 26.5488 29.8877C26.5104 29.9027 26.4722 29.9174 26.4424 29.9297C26.4275 29.9358 26.4144 29.9418 26.4043 29.9463C26.3985 29.9489 26.3932 29.9518 26.3887 29.9541H25.7949C25.6939 29.9078 25.5817 29.8644 25.4766 29.8281C25.0568 29.6837 24.6962 29.3029 24.543 28.8887C24.3911 28.4666 24.411 28.0016 24.5977 27.5938L24.5967 27.5928C24.7548 27.2523 25.0267 26.9792 25.3623 26.8184L25.5107 26.7568Z" stroke="#C25E5E" stroke-opacity="0.68" stroke-width="0.0453453"/>
</svg>
