<svg width="40" height="38" viewBox="0 0 40 38" fill="none" xmlns="http://www.w3.org/2000/svg">
<rect width="39.0144" height="37.6691" rx="12.1079" fill="#836EC5"/>
<rect x="0.379323" y="0.379323" width="38.2558" height="36.9105" rx="11.7286" stroke="white" stroke-opacity="0.1" stroke-width="0.758646"/>
<path d="M9.63672 18.0013C10.5214 13.1828 14.7432 9.53125 19.8177 9.53125C24.8923 9.53125 29.1141 13.1828 29.9997 18.0013C29.1151 22.8199 24.8923 26.4714 19.8177 26.4714C14.7432 26.4714 10.5214 22.8199 9.63672 18.0013ZM19.8177 22.7069C21.0657 22.7069 22.2626 22.2112 23.1451 21.3287C24.0276 20.4462 24.5233 19.2493 24.5233 18.0013C24.5233 16.7533 24.0276 15.5564 23.1451 14.674C22.2626 13.7915 21.0657 13.2957 19.8177 13.2957C18.5697 13.2957 17.3729 13.7915 16.4904 14.674C15.6079 15.5564 15.1122 16.7533 15.1122 18.0013C15.1122 19.2493 15.6079 20.4462 16.4904 21.3287C17.3729 22.2112 18.5697 22.7069 19.8177 22.7069ZM19.8177 20.8247C19.0689 20.8247 18.3508 20.5272 17.8213 19.9977C17.2918 19.4683 16.9944 18.7501 16.9944 18.0013C16.9944 17.2525 17.2918 16.5344 17.8213 16.0049C18.3508 15.4754 19.0689 15.178 19.8177 15.178C20.5665 15.178 21.2847 15.4754 21.8142 16.0049C22.3436 16.5344 22.6411 17.2525 22.6411 18.0013C22.6411 18.7501 22.3436 19.4683 21.8142 19.9977C21.2847 20.5272 20.5665 20.8247 19.8177 20.8247Z" fill="white"/>
</svg>
