<svg width="41" height="40" viewBox="0 0 41 40" fill="none" xmlns="http://www.w3.org/2000/svg">
<rect width="40.7815" height="39.3752" rx="12.6563" fill="#5F2EF9"/>
<rect x="0.361541" y="0.361541" width="40.0584" height="38.6522" rx="12.2948" stroke="white" stroke-opacity="0.1" stroke-width="0.723082"/>
<path d="M10.8323 18.1974C11.3675 17.9347 12.3616 17.5002 12.9047 17.2941C13.0158 17.5835 13.1968 17.96 13.325 18.2485L14.1143 20.0304L16.3297 25.0341C16.7572 25.9991 17.2298 27.0181 17.6251 27.9889C17.2459 28.1496 16.8493 28.3338 16.4709 28.5015C16.1492 28.6473 15.8285 28.7998 15.4989 28.927C14.901 29.1577 14.1997 28.9587 13.9073 28.3605C13.6317 27.7967 13.3863 27.2146 13.1325 26.6399L11.7136 23.4341L10.621 20.9692C10.4837 20.6592 10.1659 19.9887 10.0806 19.7019C10.0117 19.4633 10.0139 19.2098 10.0868 18.9723C10.2109 18.5704 10.4854 18.3793 10.8323 18.1974Z" fill="white"/>
<path d="M22.8266 12.8922C23.457 12.5893 24.1306 12.3101 24.7733 12.0355C25.3253 11.7997 26.0357 11.976 26.3301 12.5266C26.5602 12.9569 26.7563 13.4391 26.956 13.8917L28.0942 16.4662L29.4613 19.5537C29.6922 20.0742 29.9474 20.6123 30.155 21.1411C30.3042 21.5211 30.253 21.8396 30.0778 22.1981C29.7481 22.741 29.2101 22.8424 28.6736 23.1061C28.2668 23.3061 27.766 23.47 27.3771 23.6927C27.3185 23.4948 27.0854 23.0015 26.9909 22.7884L26.2321 21.0774L23.6205 15.1822L22.9334 13.6235C22.8847 13.5125 22.6875 13.0932 22.6664 13.0113C22.7117 12.9328 22.732 12.9421 22.8266 12.8922Z" fill="white"/>
<path d="M15.4112 20.2628C15.6752 20.1687 16.0422 19.9917 16.3095 19.8733L17.9523 19.1459L23.1665 16.8387C23.7297 18.0774 24.3372 19.4254 24.8641 20.6774L17.098 24.1207C16.9949 23.8126 16.7865 23.4166 16.6574 23.1027C16.2785 22.1811 15.7582 21.182 15.4112 20.2628Z" fill="white"/>
<path d="M27.9519 13.4783C28.8597 13.0651 29.2362 12.9168 30.0211 13.6536L31.7091 17.4653C31.7376 18.5838 31.3513 18.7205 30.4453 19.1301C30.2323 18.5765 29.8793 17.8382 29.6313 17.2786L27.9519 13.4783Z" fill="white"/>
<path d="M8.4274 23.1867C8.43954 23.1326 8.43397 23.0079 8.43519 22.9493C8.4506 22.2066 8.81016 21.9423 9.43287 21.6806C9.47705 21.677 9.57227 21.6581 9.58734 21.6891C10.3988 23.3545 11.1063 25.0956 11.8749 26.7847C11.9404 26.9287 11.9856 27.1145 12.0145 27.2325C11.841 27.3064 11.5602 27.4096 11.4157 27.5179C11.3809 27.5251 11.346 27.5313 11.3109 27.5364C10.7262 27.6194 10.5181 27.343 10.142 27.0584L8.4274 23.1867Z" fill="white"/>
<path d="M9.43599 21.6795C9.51368 21.6425 9.61878 21.5798 9.69897 21.5904C9.78318 21.6838 10.196 22.6668 10.2673 22.828L11.5241 25.6691C11.7339 26.143 11.981 26.7448 12.2102 27.2023C11.9389 27.3316 11.7129 27.4398 11.4188 27.5168C11.5633 27.4086 11.8441 27.3053 12.0176 27.2315C11.9887 27.1135 11.9435 26.9276 11.878 26.7837C11.1094 25.0946 10.4019 23.3535 9.59046 21.688C9.57538 21.6571 9.48016 21.676 9.43599 21.6795Z" fill="black" fill-opacity="0.976471"/>
</svg>
