<svg width="41" height="40" viewBox="0 0 41 40" fill="none" xmlns="http://www.w3.org/2000/svg">
<rect width="40.7815" height="39.3752" rx="12.6563" fill="#5F2EF9"/>
<rect x="0.361541" y="0.361541" width="40.0584" height="38.6522" rx="12.2948" stroke="white" stroke-opacity="0.1" stroke-width="0.723082"/>
<path d="M14.9442 10.6973L14.9808 10.7048C14.9941 10.7255 15.0044 11.3386 15.008 11.4119C15.1108 13.9007 16.0683 16.2834 17.7267 18.177C18.1819 18.6952 18.548 19.0249 19.0593 19.4781C18.8124 20.8642 18.2665 22.1832 17.4578 23.3479C17.3698 23.4741 17.1523 23.7981 17.0369 23.8791C16.9344 23.8707 16.3673 23.2679 16.2716 23.1708C14.2319 21.0116 12.7149 18.6045 11.7982 15.7932C11.6402 15.3087 11.4043 14.5031 11.332 14.0002C12.2254 12.6148 13.4695 11.4773 14.9442 10.6973Z" fill="white"/>
<path d="M26.5965 19.334C27.6281 19.5486 29.1286 20.3645 29.9684 20.9886C29.873 21.5455 29.726 22.0925 29.5295 22.6226C28.5368 25.3412 26.5768 27.3535 23.9558 28.5724C23.0137 28.9797 22.3343 29.1771 21.332 29.334C21.6117 29.0681 22.0154 28.5714 22.2612 28.27C23.8465 26.3132 25.0784 24.0991 25.9025 21.7256C26.0728 21.2317 26.2257 20.732 26.3611 20.2275C26.4127 20.0322 26.5204 19.4865 26.5965 19.334Z" fill="white"/>
<path d="M17.2412 14.4492C17.3457 14.4202 17.4467 14.384 17.5494 14.351C20.989 13.2473 24.7411 13.1105 28.2328 14.0516C28.3266 14.0768 28.4191 14.1048 28.5039 14.1489C28.6615 14.2308 28.8092 14.5553 28.8816 14.7008C29.2924 15.522 29.5924 16.3962 29.7734 17.2995C29.8348 17.6062 29.9071 18.3483 29.9685 18.5526V19.7894C29.809 19.7118 29.4785 19.4935 29.3048 19.3913C27.0903 18.115 24.5146 17.6484 22.0045 18.0689C21.2409 18.1955 20.8135 18.3473 20.0869 18.5464C19.9273 18.4232 19.621 18.1145 19.4766 17.966C18.4966 16.9676 17.7347 15.7691 17.2412 14.4492Z" fill="white"/>
<path d="M20.375 19.8688C21.9777 19.3008 23.7491 19.215 25.4237 19.4717C25.254 20.1601 25.1147 20.7082 24.8828 21.3896C23.8671 24.4166 22.0874 27.1479 19.7063 29.334H19.1164L19.0988 29.3282C18.9778 29.2896 18.7558 29.2626 18.624 29.2482C17.4738 29.1226 16.3544 28.7642 15.3246 28.2551C15.0514 28.1199 14.7849 27.9571 14.5146 27.8093C15.2732 27.3869 16.1618 26.8082 16.8074 26.2278C18.3762 24.8176 19.5635 22.934 20.1218 20.9267C20.2166 20.5859 20.2834 20.1735 20.375 19.8688Z" fill="white"/>
<path d="M10.7156 15.6973C10.7805 16.0969 11.0791 16.9019 11.2267 17.2977C12.3335 20.2198 14.0784 22.8545 16.3324 25.0076C16.2112 25.1647 16.0099 25.3466 15.8589 25.4822C15.1467 26.1164 14.3502 26.6477 13.4923 27.0609C11.7572 25.6567 10.5043 23.4386 10.1255 21.2389C10.0965 21.0706 10.0209 20.3853 9.96875 20.2925V18.6436C10.0378 18.4632 10.0924 17.8494 10.141 17.6001C10.2778 16.8989 10.4495 16.3533 10.7156 15.6973Z" fill="white"/>
<path d="M19.2232 9.33398H20.8022C20.9165 9.37783 21.4132 9.42769 21.5699 9.45059C21.8817 9.49861 22.1911 9.56023 22.4974 9.63527C24.0968 10.0372 25.5747 10.8153 26.8057 11.9035C27.1243 12.1869 27.4044 12.4835 27.6957 12.794C27.4259 12.6947 26.6585 12.5915 26.362 12.5513C23.8409 12.2168 21.2801 12.3226 18.7959 12.8639C18.2771 12.9766 17.7625 13.1076 17.2532 13.2567C17.1744 13.2799 16.724 13.4304 16.6838 13.4247C16.4275 13.1959 16.2372 10.3773 16.3822 10.023C16.5521 9.83926 18.0548 9.50804 18.3803 9.46241C18.5414 9.43982 19.0742 9.38102 19.2059 9.33962L19.2232 9.33398Z" fill="white"/>
</svg>
