<svg width="41" height="40" viewBox="0 0 41 40" fill="none" xmlns="http://www.w3.org/2000/svg">
<rect width="40.7815" height="39.3752" rx="12.6563" fill="#5F2EF9"/>
<rect x="0.361541" y="0.361541" width="40.0584" height="38.6522" rx="12.2948" stroke="white" stroke-opacity="0.1" stroke-width="0.723082"/>
<g clip-path="url(#clip0_5265_814)">
<path d="M15.6428 10.334H16.7324C16.8735 10.3914 17.225 10.4284 17.3936 10.4725C18.0018 10.6319 18.5577 10.8759 19.0739 11.234C20.184 12 20.9424 13.1775 21.1807 14.505C21.5595 16.6216 20.4835 19.2217 19.0353 20.7626C18.4936 21.3389 17.6502 21.9365 16.8613 22.0773C17.1043 22.5058 17.4987 23.1409 17.7741 23.5536C17.4061 23.5649 16.9963 23.5758 16.6295 23.5713C16.3362 23.8271 15.8753 24.4661 15.7845 24.8645C15.7107 25.1885 15.962 25.2891 16.1783 25.4766C16.2765 25.5622 16.3621 25.6613 16.4324 25.7709C17.0456 26.732 16.2908 27.9953 16.0733 28.9624C15.704 28.9686 15.3154 28.9601 14.945 28.9552C14.9853 28.6669 15.0127 28.5596 15.0876 28.268C15.1831 27.8984 15.7534 26.6641 15.4496 26.3625C15.0285 25.9446 14.6615 25.7561 14.6443 25.0818C14.6291 24.483 14.8866 24.0358 15.1786 23.5571C14.9857 23.5735 14.8185 23.5421 14.608 23.5661C14.7229 23.4178 14.9328 23.0586 15.0379 22.8874C15.1849 22.6481 15.4053 22.3225 15.5233 22.0834C13.5613 21.5675 12.2892 19.7002 11.6134 17.889C11.0514 16.3828 10.9064 14.7544 11.6051 13.2586C12.1827 12.0121 13.2439 11.0551 14.5432 10.6088C14.8684 10.4983 15.1754 10.4293 15.5135 10.3719C15.5539 10.365 15.5908 10.3539 15.6291 10.3393L15.6428 10.334Z" fill="white"/>
<path d="M21.7833 12.7228C23.0844 12.4137 24.4549 12.6329 25.5947 13.3323C26.7421 14.0379 27.5626 15.17 27.876 16.4801C28.2988 18.2707 27.6538 20.267 26.7201 21.799C26.0774 22.8536 24.9701 24.021 23.7374 24.3064C23.6968 24.3159 23.6558 24.3234 23.6144 24.3289C23.8685 24.7745 24.1523 25.2031 24.4199 25.6406C24.4542 25.6966 24.4888 25.7522 24.5272 25.8054C24.2415 25.8133 23.9434 25.8257 23.6588 25.8191C23.4225 26.0619 23.1765 26.4791 23.5131 26.7259C24.4054 27.3801 25.0424 28.2879 25.0874 29.4519C25.0886 29.4829 25.0891 29.5136 25.0889 29.5446H23.9674C23.9159 28.9302 23.637 28.2521 23.1304 27.8693C22.3575 27.2852 22.0457 26.7662 22.326 25.8101C22.013 25.8409 21.6641 25.7896 21.3656 25.8116C21.5324 25.5814 21.7137 25.2617 21.868 25.0165C21.992 24.8194 22.1814 24.5326 22.2781 24.3347C21.0109 23.9985 20.1406 23.2079 19.4052 22.1535C19.3804 22.118 19.3686 22.0738 19.3682 22.031C19.4236 21.9469 19.8017 21.5802 19.8962 21.4826C20.1236 21.2453 20.3344 20.9928 20.5273 20.7267C21.8274 18.9515 22.7229 16.3542 22.2562 14.1514C22.144 13.622 21.9933 13.2176 21.7833 12.7228Z" fill="white"/>
</g>
<defs>
<clipPath id="clip0_5265_814">
<rect width="19.2102" height="19.2102" fill="white" transform="translate(9.96875 10.334)"/>
</clipPath>
</defs>
</svg>
