<svg width="41" height="40" viewBox="0 0 41 40" fill="none" xmlns="http://www.w3.org/2000/svg">
<rect width="40.7815" height="39.3752" rx="12.6563" fill="#5F2EF9"/>
<rect x="0.361541" y="0.361541" width="40.0584" height="38.6522" rx="12.2948" stroke="white" stroke-opacity="0.1" stroke-width="0.723082"/>
<path d="M9.96875 28.3667V27.9991C10.0473 27.8638 10.068 27.7411 10.1738 27.6124C10.4613 27.2622 12.2939 26.5521 12.8055 26.3655C15.1934 25.495 18.1474 24.8334 20.5828 25.8572C20.9869 26.0273 21.3791 26.2761 21.7811 26.455C23.8913 27.3936 26.1963 27.7645 28.3278 26.659C28.7353 26.4479 29.5261 25.7595 29.8758 25.7165C30.2543 25.6701 30.635 25.8779 30.7866 26.2281C31.097 26.9469 30.5101 27.3255 30.0039 27.6816C27.4993 29.4455 24.5878 29.4128 21.7991 28.3563C20.592 27.8993 19.6654 27.1826 18.3203 27.0991C15.7923 26.9426 13.219 28.0531 10.9663 29.0567C10.482 29.1085 10.1291 28.7998 9.96984 28.3661L9.96875 28.3667Z" fill="white"/>
<path d="M9.96875 25.2668V24.94C10.0315 24.832 10.0407 24.7273 10.1144 24.6161C10.3533 24.2566 11.5309 23.7952 11.9705 23.6141C14.2307 22.6842 17.2268 21.8589 19.6534 22.4611C20.6711 22.7136 21.5634 23.3256 22.5529 23.6856C24.8786 24.5315 26.9217 24.5217 29.0238 23.1527C29.4923 22.8478 29.8747 22.3591 30.5025 22.7992C31.0435 23.1783 30.953 23.8126 30.5057 24.2261C28.3993 26.1727 25.1338 26.3325 22.5125 25.5226C20.6564 24.9488 19.6403 23.9212 17.5431 24.0014C15.255 24.0892 13.0591 25.0415 11.0067 25.9567C10.4755 26.0298 10.1384 25.7456 9.9693 25.2662L9.96875 25.2668Z" fill="white"/>
<path d="M20.2996 13.7103L20.3302 13.8603C21.3414 15.3248 22.141 16.8116 22.7786 18.4752C22.9831 19.0086 23.6846 20.8069 23.6366 21.2705C23.5886 21.7341 23.1533 22.1399 22.6821 22.1961C22.1132 22.2637 20.9591 21.8257 20.3394 21.6899C18.5663 21.3005 16.8771 21.2525 15.1132 21.7314C14.4101 21.9223 13.5183 22.4524 12.8665 21.8546C12.5022 21.5203 12.4188 20.899 12.6778 20.4801C12.9047 20.1142 13.6007 19.7673 13.983 19.5398C15.7497 18.4904 17.6101 17.6057 19.5219 16.8514C18.9273 15.7938 18.1632 14.8273 17.5452 13.7867C16.9273 12.746 17.0903 12.122 18.2657 11.738C19.7122 11.2657 21.5285 10.7824 23.0159 10.4454C23.6431 10.3036 24.3189 10.177 24.6674 10.8697C25.0623 11.654 24.6314 12.2944 23.8711 12.566L20.2991 13.7098L20.2996 13.7103Z" fill="white"/>
<path d="M25.8012 14.6637C28.0467 14.4401 29.5205 17.0783 28.0538 18.8352C26.8577 20.2685 24.5227 20.0029 23.7329 18.2995C22.9901 16.6976 24.0553 14.8372 25.8007 14.6632L25.8012 14.6637Z" fill="white"/>
</svg>
