<svg width="665" height="465" viewBox="0 0 665 465" fill="none" xmlns="http://www.w3.org/2000/svg">
<g clip-path="url(#clip0_3003_86)">
<path d="M0.609863 219.732V180.221L114.029 47.1012H1.55098V0.422119H184.205V36.7647L71.0991 173.053H185.146V219.732H0.609863Z" fill="#141414"/>
<path d="M286.911 219.732V137.965L196.047 0.422119H258.082L315.411 90.3453L373.054 0.422119H431.638L340.79 137.965V219.732H286.895H286.911Z" fill="#141414"/>
<path d="M67.8362 461.127V289.437H0.844727V241.817H185.146V289.437H118.154V461.127H67.8362Z" fill="#141414"/>
<path d="M215.638 461.127V241.817H327.802C342.845 241.817 356.208 244.797 367.909 250.742C379.611 256.686 388.739 264.953 395.327 275.493C401.899 286.049 405.193 298.111 405.193 311.679C405.193 325.246 401.429 337.795 393.915 348.649C386.402 359.503 376.474 367.753 364.161 373.4L412.095 461.127H351.942L310.58 381.242H269.532V461.127H215.653H215.638ZM269.516 337.371H322.783C331.128 337.371 337.872 335.081 342.986 330.485C348.099 325.889 350.656 319.945 350.656 312.62C350.656 305.295 348.099 299.366 342.986 294.754C337.872 290.159 331.128 287.869 322.783 287.869H269.516V337.371Z" fill="#141414"/>
<path d="M547.615 464.562C531.114 464.562 515.758 461.692 501.563 455.951C487.352 450.21 474.929 442.164 464.279 431.827C453.629 421.491 445.332 409.476 439.371 395.798C433.426 382.121 430.446 367.345 430.446 351.472C430.446 335.599 433.426 320.823 439.371 307.146C445.332 293.468 453.629 281.453 464.279 271.117C474.929 260.78 487.352 252.734 501.563 246.993C515.758 241.252 531.114 238.382 547.615 238.382C564.115 238.382 579.471 241.252 593.666 246.993C607.862 252.734 620.3 260.78 630.95 271.117C641.6 281.453 649.898 293.468 655.858 307.146C661.819 320.823 664.783 335.599 664.783 351.472C664.783 367.345 661.803 382.121 655.858 395.798C649.913 409.476 641.6 421.491 630.95 431.827C620.3 442.164 607.862 450.21 593.666 455.951C579.456 461.692 564.115 464.562 547.615 464.562ZM547.615 415.06C556.383 415.06 564.539 413.444 572.052 410.197C579.565 406.966 586.09 402.527 591.627 396.881C597.164 391.234 601.493 384.505 604.63 376.678C607.767 368.851 609.336 360.444 609.336 351.456C609.336 342.469 607.767 333.811 604.63 326.078C601.493 318.361 597.164 311.663 591.627 306.032C586.09 300.385 579.565 295.962 572.052 292.715C564.539 289.484 556.383 287.853 547.615 287.853C538.847 287.853 530.69 289.469 523.177 292.715C515.664 295.962 509.123 300.385 503.602 306.032C498.065 311.679 493.736 318.361 490.599 326.078C487.462 333.811 485.893 342.265 485.893 351.456C485.893 360.648 487.462 368.851 490.599 376.678C493.736 384.505 498.065 391.25 503.602 396.881C509.139 402.527 515.664 406.966 523.177 410.197C530.69 413.444 538.847 415.06 547.615 415.06Z" fill="#141414"/>
<path d="M478.412 45.9875V17.4875H491.446C493.375 17.4875 495.054 17.8483 496.497 18.5385C497.94 19.2443 499.069 20.2325 499.885 21.4873C500.7 22.7421 501.108 24.2322 501.108 25.9419C501.108 27.7927 500.559 29.3926 499.477 30.7729C498.395 32.1375 496.967 33.11 495.21 33.6903L501.61 45.9875H496.779L490.834 34.3021H482.741V45.9875H478.412ZM482.741 30.7102H491.117C492.826 30.7102 494.191 30.2867 495.195 29.424C496.214 28.5613 496.716 27.4163 496.716 25.9419C496.716 24.4675 496.214 23.3538 495.195 22.5068C494.175 21.6441 492.811 21.2206 491.117 21.2206H482.741V30.7102Z" fill="#141414"/>
<path d="M490.003 62.8962C472.592 62.8962 458.429 48.9207 458.429 31.7297C458.429 14.5387 472.592 0.563232 490.003 0.563232C507.414 0.563232 521.577 14.5387 521.577 31.7297C521.577 48.9207 507.414 62.8962 490.003 62.8962ZM490.003 4.67276C474.882 4.67276 462.585 16.8131 462.585 31.7297C462.585 46.6463 474.882 58.7866 490.003 58.7866C505.124 58.7866 517.421 46.6463 517.421 31.7297C517.421 16.8131 505.124 4.67276 490.003 4.67276Z" fill="#141414"/>
</g>
<defs>
<clipPath id="clip0_3003_86">
<rect width="665" height="465" fill="white"/>
</clipPath>
</defs>
</svg>
