<svg width="41" height="40" viewBox="0 0 41 40" fill="none" xmlns="http://www.w3.org/2000/svg">
<rect width="40.7815" height="39.3752" rx="12.6563" fill="#5F2EF9"/>
<rect x="0.361541" y="0.361541" width="40.0584" height="38.6522" rx="12.2948" stroke="white" stroke-opacity="0.1" stroke-width="0.723082"/>
<g clip-path="url(#clip0_5250_5340)">
<path d="M22.4776 10.5625C22.6753 10.561 22.8419 10.6687 22.8699 10.8703C22.9143 11.1913 22.573 11.2609 22.4871 11.5533C22.5337 11.7549 22.7615 11.9859 22.8915 12.1535C23.188 12.5354 23.311 13.0634 23.0585 13.5017C22.9331 13.7192 22.7721 13.8583 22.5229 13.9216C22.3336 13.9347 22.1463 13.7658 22.1153 13.5753C22.0727 13.313 22.2931 13.2402 22.3824 13.1014C22.5665 12.815 22.061 12.3786 21.934 12.1567C21.8334 12.0027 21.7706 11.8661 21.7372 11.6817C21.656 11.2338 22.0152 10.8112 22.3679 10.588C22.386 10.5765 22.4533 10.5664 22.4776 10.5625Z" fill="white"/>
<path d="M17.3273 10.5625C17.5249 10.5612 17.6913 10.6687 17.7192 10.8704C17.7636 11.1916 17.4224 11.2608 17.3365 11.5533C17.383 11.7547 17.611 11.9863 17.7409 12.1535C18.0405 12.5392 18.1622 13.0735 17.9011 13.513C17.7748 13.7257 17.6177 13.8595 17.3723 13.9216C17.1857 13.9386 16.9798 13.7519 16.9633 13.5626C16.9413 13.311 17.1139 13.2555 17.2259 13.1073C17.4433 12.8196 16.9439 12.4252 16.8124 12.2005C16.6973 12.033 16.6236 11.8858 16.5868 11.6816C16.5058 11.2334 16.8641 10.8115 17.2173 10.588C17.2354 10.5765 17.3028 10.5664 17.3273 10.5625Z" fill="white"/>
<path d="M11.731 16.7778C11.6567 16.5132 11.5792 15.7561 11.6786 15.4718C11.6907 15.4372 11.7606 15.3788 11.7942 15.3543C11.843 15.3189 11.938 15.3239 11.9973 15.3171C12.2568 15.3109 12.5215 15.3135 12.7812 15.3136L14.23 15.3137L23.7219 15.3136L26.3175 15.3137L27.0064 15.3138C27.1338 15.3138 27.2757 15.3018 27.4007 15.324C27.4926 15.3403 27.5681 15.3852 27.6219 15.4626C27.7507 15.648 27.6255 16.5325 27.5775 16.7755L28.6286 16.7754C28.8299 16.7754 29.0608 16.7616 29.2576 16.7958C29.655 16.8648 29.7066 17.3789 29.4473 17.6293C29.2605 17.8097 29.0173 17.7759 28.775 17.7759L28.1914 17.7758C27.9269 17.7757 27.6595 17.7748 27.3945 17.7794C27.3844 17.7796 27.3588 17.7763 27.3476 17.7748C27.2163 18.2104 27.1109 18.5336 26.9236 18.9546C26.3378 20.2597 25.4103 21.3824 24.2391 22.204C23.8481 22.4771 23.5855 22.6026 23.1929 22.8294C23.3936 23.3612 23.5854 23.9154 23.7782 24.4514L24.8759 27.5031L25.4653 29.1395C25.5376 29.3403 25.6102 29.5403 25.6821 29.7421C25.7518 29.9379 25.84 30.1355 25.7267 30.3354C25.6455 30.4788 25.5268 30.5232 25.395 30.6009H25.1805C25.0527 30.5307 24.9198 30.4864 24.8529 30.3426C24.7868 30.2003 24.7376 30.0476 24.6846 29.8998L24.3864 29.0727L23.7746 27.3839C23.6607 27.0694 23.534 26.7371 23.43 26.4204C23.214 26.4067 22.923 26.4153 22.6997 26.4155L21.4223 26.4156H17.4179L16.3611 26.4158C16.2031 26.416 16.0038 26.4256 15.852 26.4162C15.7189 26.7369 15.585 27.1394 15.4654 27.47L14.788 29.3403L14.5768 29.928C14.4418 30.3035 14.4599 30.4177 14.0898 30.6009H13.875C13.724 30.5115 13.5413 30.4333 13.5057 30.2415C13.4591 29.9912 13.6206 29.652 13.704 29.4178L14.0506 28.4451L15.396 24.6555L15.8288 23.4376C15.8851 23.2792 16.0018 22.9805 16.0425 22.8272C15.9023 22.743 15.7584 22.6729 15.6172 22.5919C15.3971 22.4648 15.1832 22.3272 14.9763 22.1795C13.4724 21.1146 12.3846 19.5607 11.8987 17.7831L11.8863 17.7819C11.7418 17.7687 11.525 17.7746 11.3762 17.7748L10.4983 17.7763C10.2042 17.7768 9.89427 17.8293 9.68657 17.5891C9.43775 17.3013 9.60878 16.854 9.97611 16.7897C10.2056 16.7575 10.4757 16.7837 10.7101 16.7753C11.0485 16.7811 11.3944 16.7657 11.731 16.7778ZM16.2108 25.4148L22.7241 25.4161L23.0607 25.4177C22.9756 25.2286 22.8695 24.8997 22.7942 24.692L22.2612 23.2268C21.9603 23.328 21.6946 23.4144 21.3839 23.4887C20.2465 23.76 19.0613 23.7609 17.9234 23.4915C17.7195 23.4442 17.2041 23.3081 17.0096 23.2234C16.8502 23.6881 16.6679 24.1649 16.5008 24.6285C16.432 24.8192 16.2902 25.2449 16.2108 25.4148Z" fill="white"/>
<path d="M19.8042 9.33398H19.9929C20.0844 9.38658 20.1896 9.43585 20.2504 9.52518C20.5426 9.98936 19.7772 10.1898 19.7424 10.5598C19.7149 10.852 20.2074 11.397 20.3791 11.6166C20.958 12.3569 20.9943 13.2452 20.2133 13.8511C19.8604 14.1248 19.4147 13.7651 19.5998 13.3885C19.6659 13.2707 19.7786 13.1872 19.8665 13.0849C20.2909 12.5911 19.8229 12.1256 19.5217 11.7619C19.4304 11.6506 19.3451 11.5345 19.2663 11.4141C19.0555 11.0887 18.9161 10.7501 18.9969 10.3556C19.0727 9.98566 19.4904 9.53089 19.8042 9.33398Z" fill="white"/>
</g>
<defs>
<clipPath id="clip0_5250_5340">
<rect width="21.2684" height="21.2684" fill="white" transform="translate(8.96875 9.33398)"/>
</clipPath>
</defs>
</svg>
