<svg width="41" height="40" viewBox="0 0 41 40" fill="none" xmlns="http://www.w3.org/2000/svg">
<rect width="40.7815" height="39.3752" rx="12.6563" fill="#5F2EF9"/>
<rect x="0.361541" y="0.361541" width="40.0584" height="38.6522" rx="12.2948" stroke="white" stroke-opacity="0.1" stroke-width="0.723082"/>
<path d="M21.7273 29.6204H21.4781C21.4348 29.5549 21.3205 29.5808 21.2501 29.5802C17.8895 29.547 14.3787 28.35 11.8821 26.1992C11.5614 25.9229 11.1857 25.5767 10.9688 25.2295V24.9526C11.0287 24.8871 11.0353 24.8078 11.093 24.7344C11.2357 24.5521 11.962 23.8603 12.1529 23.7266C12.7406 23.315 13.0841 23.9068 13.4603 24.2213C18.1198 28.1149 25.0867 28.1228 29.744 24.2213C30.1341 23.8947 30.4698 23.3023 31.0736 23.7451C31.255 23.8783 31.9886 24.5679 32.1113 24.7344C32.2788 24.9622 32.2794 25.2185 32.1113 25.4473C31.9825 25.6222 31.5303 26.018 31.3438 26.1797C28.8179 28.3675 25.2404 29.5866 21.8272 29.5787L21.7267 29.6199L21.7273 29.6204Z" fill="white"/>
<path d="M24.2171 15.7335H25.1932C26.8901 15.7335 28.1536 17.3727 28.2479 18.8767C28.3473 20.4657 28.168 22.1473 28.2491 23.7463C28.2546 23.7976 28.2363 23.8245 28.2041 23.8621C28.1181 23.9619 27.6414 24.2447 27.4949 24.334C27.2524 24.483 26.965 24.6447 26.7103 24.7731C26.5361 24.8608 25.3325 25.4173 25.2559 25.3459C25.2298 23.9947 24.3175 22.7386 22.9819 22.2699C20.5941 21.4317 18.0266 22.8839 17.945 25.3459C16.8551 25.0447 15.8552 24.4671 14.9546 23.823V15.3779L14.7803 15.7462C14.0767 16.8216 12.4103 16.4416 12.2949 15.1617L12.3066 9.86934C12.3809 9.52585 12.68 9.39215 13.0218 9.36414C15.1721 9.18817 17.2658 9.76153 18.3678 11.6333C19.5231 13.5954 18.7563 16.7053 18.9816 18.9206C19.0087 19.1864 19.2124 19.4205 19.5021 19.4532C20.7889 19.6007 22.3798 19.3407 23.6994 19.4532C23.8664 19.4775 24.2177 19.1594 24.2177 19.0368V15.734L24.2171 15.7335Z" fill="white"/>
<path d="M22.9746 15.416H20.2334V17.9478H22.9746V15.416Z" fill="white"/>
</svg>
