<svg width="41" height="40" viewBox="0 0 41 40" fill="none" xmlns="http://www.w3.org/2000/svg">
<rect width="40.7815" height="39.3752" rx="12.6563" fill="#5F2EF9"/>
<rect x="0.361541" y="0.361541" width="40.0584" height="38.6522" rx="12.2948" stroke="white" stroke-opacity="0.1" stroke-width="0.723082"/>
<path d="M7.96875 22.3388C8.02271 22.1783 8.03049 21.6754 8.05056 21.4771C8.09963 21.0092 8.16672 20.5432 8.25167 20.0804C8.70266 17.6619 10.0673 14.1024 12.3471 12.8692C13.5111 12.2395 14.8099 12.209 16.0597 12.5837C16.5468 12.7326 17.0164 12.9337 17.4602 13.1836C18.0057 13.4886 18.3361 13.8329 18.9869 13.9478C19.3819 14.0175 19.7548 13.9756 20.148 13.9864C20.6793 14.0069 21.1731 13.9606 21.6483 13.6964C21.8175 13.6024 21.9648 13.4897 22.1287 13.3865C23.4744 12.5396 25.172 12.0474 26.7369 12.5144C28.3327 12.9907 29.3809 14.2887 30.1416 15.699C30.9771 17.2441 31.5325 18.9249 31.7822 20.6636C31.8369 21.021 31.8785 21.3803 31.9071 21.7408C31.92 21.8957 31.9375 22.3147 31.9688 22.429V23.9438C31.9171 24.1123 31.907 24.598 31.8882 24.8023C31.8551 25.1697 31.8049 25.5354 31.7379 25.8981C31.5905 26.7004 31.343 27.5462 30.5863 27.9808C30.1726 28.2182 29.6081 28.3076 29.1459 28.1773C28.0499 27.8683 26.3727 26.0568 25.5707 25.1817C25.4279 25.0232 25.2871 24.8632 25.1479 24.7016C25.037 24.5732 24.9254 24.4344 24.795 24.326C24.607 24.171 24.3877 24.0584 24.152 23.9963C23.8744 23.9237 23.4948 23.9412 23.2002 23.9413L22.2354 23.9418L19.0172 23.9417L17.0709 23.9414C16.7079 23.9414 16.3204 23.9129 15.9617 23.9647C15.759 23.9939 15.5765 24.0554 15.3966 24.1541C14.9876 24.3783 14.7178 24.7927 14.409 25.131C13.5942 26.0235 11.8887 27.8739 10.769 28.1865C10.4494 28.2757 10.0653 28.2413 9.74963 28.1516C9.23943 28.0067 8.85083 27.6496 8.59808 27.1907C8.23756 26.5361 8.10399 25.4778 8.04011 24.7367C8.02496 24.5609 8.02968 24.1602 7.96875 24.0124V22.3388ZM13.8386 16.0749C13.8267 16.2505 13.8328 16.4702 13.833 16.6488C13.8352 17.0055 13.8344 17.3623 13.8304 17.7191L12.7981 17.7206C12.6642 17.7211 12.3093 17.7302 12.193 17.7149C11.971 18.1038 11.9169 18.5496 12.0336 18.9819C12.0603 19.0806 12.1202 19.2909 12.2032 19.3563C12.2741 19.4121 13.5753 19.3762 13.7786 19.3902C13.7656 19.5684 13.7751 19.8635 13.7765 20.0509C13.7786 20.3374 13.7671 20.6636 13.7807 20.9462C14.0358 21.1804 14.3551 21.2336 14.6894 21.22C14.7059 21.2194 14.7223 21.2185 14.7387 21.2172C14.9816 21.1792 15.2314 21.1178 15.436 20.9719C15.4588 20.5109 15.4461 19.8624 15.4418 19.3898C15.9713 19.365 16.5513 19.3938 17.085 19.3841C17.4047 18.7449 17.4519 18.3478 17.0599 17.7274C16.727 17.7121 16.3853 17.7195 16.0514 17.7201C15.875 17.7204 15.6655 17.7086 15.4925 17.7172L15.4998 16.7907C15.5009 16.6901 15.5244 16.1547 15.4734 16.1065C15.3485 15.9888 14.8596 15.917 14.6888 15.9146C14.6506 15.9144 14.6125 15.9149 14.5744 15.9163C14.2801 15.9225 14.1097 15.9563 13.8386 16.0749ZM24.4905 15.0171C23.7792 15.0927 23.263 15.7294 23.3361 16.441C23.4093 17.1527 24.0442 17.6711 24.756 17.6006C25.4715 17.5296 25.9931 16.8908 25.9196 16.1756C25.8462 15.4604 25.2055 14.941 24.4905 15.0171ZM27.7309 16.939C27.0165 17.0156 26.5001 17.6576 26.5782 18.3718C26.6565 19.086 27.2998 19.601 28.0138 19.521C28.7254 19.4413 29.2383 18.8007 29.1602 18.0889C29.0823 17.3771 28.4429 16.8627 27.7309 16.939ZM24.5014 18.5959C23.7873 18.6658 23.2651 19.3016 23.3354 20.0158C23.4057 20.7299 24.0417 21.2517 24.7559 21.1811C25.4694 21.1105 25.9908 20.4749 25.9206 19.7613C25.8504 19.0477 25.2151 18.526 24.5014 18.5959Z" fill="white"/>
</svg>
