<svg width="41" height="40" viewBox="0 0 41 40" fill="none" xmlns="http://www.w3.org/2000/svg">
<rect width="40.7815" height="39.3752" rx="12.6563" fill="#5F2EF9"/>
<rect x="0.361541" y="0.361541" width="40.0584" height="38.6522" rx="12.2948" stroke="white" stroke-opacity="0.1" stroke-width="0.723082"/>
<path d="M18.9299 7.7602C19.4551 7.6952 20.9871 8.15174 21.5845 8.30085L25.542 9.28893L27.8909 9.87604C28.7626 10.0941 29.9543 10.1839 29.9676 11.3257C29.9745 11.9243 29.975 12.5215 29.975 13.1201L29.9743 16.8009L29.9752 24.3199C29.9752 25.6183 29.9855 26.9267 29.9663 28.2179C29.9521 29.1703 28.9643 29.3748 28.24 29.5349C27.8729 29.6161 27.4843 29.7146 27.1223 29.8162C26.4915 29.9476 25.7211 30.162 25.0864 30.3207L21.4382 31.2303C20.7134 31.4126 19.983 31.6268 19.2494 31.7523C18.8074 31.8279 18.1081 31.3879 18.042 30.9466C17.917 30.1117 17.9702 29.1778 17.9703 28.3257L17.9703 23.337L17.9708 13.627L17.9715 10.806C17.9698 10.2444 17.9613 9.68201 17.9685 9.12045C17.9776 8.41828 18.2177 7.9561 18.9299 7.7602ZM22.8647 21.1084C23.7578 20.9979 24.0768 20.2444 23.9695 19.4385C23.87 18.6922 23.4067 18.3359 22.6792 18.3477C21.1097 18.4697 21.1772 21.1575 22.8647 21.1084Z" fill="white"/>
<path d="M13.215 10.1314C14.2857 10.0899 15.6817 10.1243 16.7711 10.1333L16.7748 12.5435C16.0917 12.5466 15.015 12.5873 14.3682 12.5422C14.3899 13.5344 14.3726 14.5872 14.3725 15.5861L14.3718 21.3511L14.3734 24.9487C14.3736 25.5265 14.3979 26.3777 14.3586 26.9363C15.1504 26.9587 15.9761 26.9436 16.7737 26.9522L16.7764 28.1428C16.7797 28.5477 16.7768 28.9527 16.7676 29.3576C15.735 29.417 14.6265 29.3352 13.595 29.3668C11.7008 29.4251 11.968 28.1452 11.968 26.7968L11.9679 23.4528L11.9679 15.527C11.968 14.1838 11.9652 12.8405 11.972 11.4974C11.9763 10.6361 12.3493 10.2183 13.215 10.1314Z" fill="white"/>
</svg>
