<svg width="41" height="40" viewBox="0 0 41 40" fill="none" xmlns="http://www.w3.org/2000/svg">
<rect width="40.7815" height="39.3752" rx="12.6563" fill="#E77373"/>
<rect x="0.361541" y="0.361541" width="40.0584" height="38.6522" rx="12.2948" stroke="#C25E5E" stroke-opacity="0.68" stroke-width="0.723082"/>
<path fill-rule="evenodd" clip-rule="evenodd" d="M11.4024 11.4444C11.5161 10.7892 12.1011 10.334 12.7704 10.334H12.8898C12.9175 10.334 12.9449 10.3394 12.9703 10.35C12.9958 10.3607 13.0188 10.3762 13.0379 10.3958C13.057 10.4153 13.0719 10.4385 13.0816 10.4638C13.0913 10.4892 13.0956 10.5162 13.0944 10.5432L12.9123 14.4512C12.9093 14.5168 12.9195 14.5823 12.9424 14.6441C12.9652 14.7058 13.0003 14.7626 13.0456 14.8111C13.0909 14.8596 13.1456 14.8989 13.2064 14.9267C13.2672 14.9546 13.3331 14.9704 13.4002 14.9734C13.4673 14.9764 13.5343 14.9664 13.5975 14.944C13.6606 14.9216 13.7186 14.8873 13.7682 14.843C13.8178 14.7987 13.858 14.7453 13.8865 14.6859C13.915 14.6264 13.9312 14.562 13.9342 14.4964L14.1187 10.5252C14.1211 10.4737 14.1436 10.425 14.1817 10.3894C14.2198 10.3538 14.2706 10.3339 14.3233 10.334H15.3869C15.4396 10.3339 15.4903 10.3538 15.5285 10.3894C15.5666 10.425 15.5891 10.4737 15.5915 10.5252L15.776 14.4964C15.7821 14.6289 15.8419 14.7536 15.9421 14.843C16.0423 14.9324 16.1747 14.9792 16.3102 14.9732C16.4457 14.9671 16.5733 14.9087 16.6647 14.8107C16.7562 14.7128 16.8041 14.5833 16.7979 14.4508L16.6162 10.5432C16.615 10.5162 16.6193 10.4892 16.629 10.4638C16.6387 10.4385 16.6536 10.4153 16.6727 10.3958C16.6918 10.3762 16.7148 10.3607 16.7403 10.35C16.7657 10.3394 16.7931 10.334 16.8208 10.334H16.9394C17.6087 10.334 18.1937 10.7888 18.3074 11.444C18.4968 12.5376 18.7619 14.4496 18.7406 16.4944C18.7288 17.6304 17.9511 18.6516 16.7308 18.9188C16.5524 18.9583 16.3659 18.9937 16.1711 19.0252L16.9247 26.0428C17.0376 27.094 16.3683 28.1504 15.254 28.302C15.1219 28.3217 14.9887 28.3324 14.8551 28.334C14.7217 28.3324 14.5885 28.3217 14.4566 28.302C13.3423 28.15 12.673 27.094 12.7859 26.0428L13.5395 19.0256C13.352 18.9954 13.1655 18.9599 12.9802 18.9192C11.7595 18.652 10.9818 17.6308 10.97 16.4948C10.9487 14.45 11.2134 12.538 11.4024 11.4444ZM28.3551 10.6736C23.4976 10.6736 19.5596 14.524 19.5596 19.2736C19.5596 24.0232 23.4976 27.8736 28.3551 27.8736C28.5179 27.8736 28.6739 27.8104 28.789 27.6978C28.9041 27.5853 28.9688 27.4327 28.9688 27.2736V24.6408C28.765 24.6624 28.5601 24.6734 28.3551 24.6736C25.3049 24.6736 22.8324 22.256 22.8324 19.2736C22.8324 16.2912 25.3049 13.8736 28.3551 13.8736C28.5627 13.8736 28.7672 13.8845 28.9688 13.9064V11.2736C28.9688 11.1145 28.9041 10.9618 28.789 10.8493C28.6739 10.7368 28.5179 10.6736 28.3551 10.6736ZM28.3551 23.4736C28.5637 23.4736 28.7683 23.4595 28.9688 23.4312V15.116C28.7654 15.0882 28.5604 15.074 28.3551 15.0736C25.9828 15.0736 24.0597 16.954 24.0597 19.2736C24.0597 21.5932 25.9828 23.4736 28.3551 23.4736Z" fill="white"/>
</svg>
