<svg width="59" height="59" viewBox="0 0 59 59" fill="none" xmlns="http://www.w3.org/2000/svg">
<foreignObject x="-23.4398" y="-23.4398" width="105.461" height="105.844"><div xmlns="http://www.w3.org/1999/xhtml" style="backdrop-filter:blur(11.72px);clip-path:url(#bgblur_0_5305_1114_clip_path);height:100%;width:100%"></div></foreignObject><g opacity="0.91" data-figma-bg-blur-radius="23.4398">
<rect width="58.5809" height="58.9663" rx="20.3477" fill="#A6A6A6" fill-opacity="0.23"/>
<rect width="58.5809" height="58.9663" rx="20.3477" fill="#333333" style="mix-blend-mode:color-dodge"/>
<rect width="58.5809" height="58.9663" rx="20.3477" fill="white"/>
<rect x="0.440574" y="0.440574" width="57.6997" height="58.0851" rx="19.9072" stroke="white" stroke-opacity="0.1" stroke-width="0.881149"/>
</g>
<path d="M29.3927 40.2266C29.7906 40.2266 30.1721 40.3846 30.4534 40.6659C30.7348 40.9472 30.8928 41.3287 30.8928 41.7266V43.2266C30.8928 43.6244 30.7348 44.0059 30.4534 44.2872C30.1721 44.5685 29.7906 44.7266 29.3927 44.7266C28.9949 44.7266 28.6133 44.5685 28.332 44.2872C28.0507 44.0059 27.8926 43.6244 27.8926 43.2266V41.7266C27.8926 41.3287 28.0507 40.9472 28.332 40.6659C28.6133 40.3846 28.9949 40.2266 29.3927 40.2266ZM38.9393 37.1516L39.9998 38.2121C40.2731 38.495 40.4243 38.8739 40.4208 39.2672C40.4174 39.6605 40.2597 40.0367 39.9815 40.3148C39.7034 40.5929 39.3272 40.7507 38.9339 40.7541C38.5405 40.7575 38.1616 40.6063 37.8787 40.3331L36.8181 39.2726C36.5449 38.9897 36.3937 38.6108 36.3971 38.2175C36.4005 37.8242 36.5583 37.4479 36.8364 37.1698C37.1145 36.8917 37.4908 36.734 37.8841 36.7306C38.2774 36.7271 38.6563 36.8783 38.9393 37.1516ZM19.8462 37.1516C20.1161 36.8825 20.4784 36.7264 20.8593 36.7147C21.2403 36.7031 21.6114 36.8369 21.8972 37.0889C22.1831 37.341 22.3623 37.6924 22.3984 38.0718C22.4346 38.4512 22.325 38.8301 22.0918 39.1316L21.9673 39.2726L20.9068 40.3331C20.6368 40.6021 20.2746 40.7583 19.8936 40.7699C19.5127 40.7815 19.1416 40.6477 18.8557 40.3957C18.5699 40.1436 18.3907 39.7922 18.3545 39.4128C18.3184 39.0335 18.428 38.6545 18.6611 38.3531L18.7856 38.2121L19.8462 37.1516ZM29.3927 20.7266C31.7798 20.7266 34.0691 21.6748 35.757 23.3626C37.445 25.0504 38.3932 27.3396 38.3932 29.7266C38.3932 32.1135 37.445 34.4027 35.757 36.0905C34.0691 37.7784 31.7798 38.7266 29.3927 38.7266C27.0056 38.7266 24.7163 37.7784 23.0284 36.0905C21.3405 34.4027 20.3922 32.1135 20.3922 29.7266C20.3922 27.3396 21.3405 25.0504 23.0284 23.3626C24.7163 21.6748 27.0056 20.7266 29.3927 20.7266ZM17.3921 28.2266C17.7744 28.227 18.1421 28.3734 18.4202 28.6358C18.6982 28.8983 18.8655 29.257 18.8879 29.6387C18.9103 30.0203 18.7861 30.3961 18.5407 30.6893C18.2953 30.9825 17.9472 31.1709 17.5676 31.2161L17.3921 31.2266H15.892C15.5096 31.2261 15.1419 31.0797 14.8639 30.8173C14.5858 30.5548 14.4185 30.1961 14.3961 29.8145C14.3737 29.4328 14.4979 29.057 14.7433 28.7638C14.9887 28.4706 15.3368 28.2822 15.7165 28.2371L15.892 28.2266H17.3921ZM42.8935 28.2266C43.2913 28.2266 43.6729 28.3846 43.9542 28.6659C44.2355 28.9472 44.3936 29.3287 44.3936 29.7266C44.3936 30.1244 44.2355 30.5059 43.9542 30.7872C43.6729 31.0685 43.2913 31.2266 42.8935 31.2266H41.3934C40.9955 31.2266 40.614 31.0685 40.3327 30.7872C40.0513 30.5059 39.8933 30.1244 39.8933 29.7266C39.8933 29.3287 40.0513 28.9472 40.3327 28.6659C40.614 28.3846 40.9955 28.2266 41.3934 28.2266H42.8935ZM18.7856 19.1201C19.0439 18.8618 19.3876 18.7067 19.7522 18.6837C20.1167 18.6608 20.4771 18.7717 20.7657 18.9956L20.9068 19.1201L21.9673 20.1806C22.2363 20.4505 22.3925 20.8127 22.4042 21.1936C22.4158 21.5746 22.282 21.9456 22.0299 22.2315C21.7779 22.5173 21.4265 22.6965 21.047 22.7327C20.6676 22.7688 20.2887 22.6592 19.9872 22.4261L19.8462 22.3016L18.7856 21.2411C18.5044 20.9598 18.3464 20.5783 18.3464 20.1806C18.3464 19.7828 18.5044 19.4014 18.7856 19.1201ZM39.9998 19.1201C40.281 19.4014 40.439 19.7828 40.439 20.1806C40.439 20.5783 40.281 20.9598 39.9998 21.2411L38.9393 22.3016C38.8009 22.4448 38.6353 22.5591 38.4523 22.6377C38.2693 22.7163 38.0725 22.7577 37.8733 22.7594C37.6741 22.7612 37.4766 22.7232 37.2922 22.6478C37.1079 22.5724 36.9404 22.461 36.7995 22.3202C36.6587 22.1793 36.5473 22.0118 36.4719 21.8275C36.3965 21.6431 36.3585 21.4456 36.3602 21.2465C36.362 21.0473 36.4033 20.8505 36.482 20.6675C36.5606 20.4844 36.6749 20.3189 36.8181 20.1806L37.8787 19.1201C38.16 18.8389 38.5415 18.6809 38.9393 18.6809C39.337 18.6809 39.7185 18.8389 39.9998 19.1201ZM29.3927 14.7266C29.7906 14.7266 30.1721 14.8846 30.4534 15.1659C30.7348 15.4472 30.8928 15.8287 30.8928 16.2266V17.7266C30.8928 18.1244 30.7348 18.5059 30.4534 18.7872C30.1721 19.0685 29.7906 19.2266 29.3927 19.2266C28.9949 19.2266 28.6133 19.0685 28.332 18.7872C28.0507 18.5059 27.8926 18.1244 27.8926 17.7266V16.2266C27.8926 15.8287 28.0507 15.4472 28.332 15.1659C28.6133 14.8846 28.9949 14.7266 29.3927 14.7266Z" fill="#8667EA"/>
<defs>
<clipPath id="bgblur_0_5305_1114_clip_path" transform="translate(23.4398 23.4398)"><rect width="58.5809" height="58.9663" rx="20.3477"/>
</clipPath></defs>
</svg>
