<svg width="123" height="123" viewBox="0 0 123 123" fill="none" xmlns="http://www.w3.org/2000/svg">
<foreignObject x="-16.8344" y="-16.8344" width="155.975" height="155.975"><div xmlns="http://www.w3.org/1999/xhtml" style="backdrop-filter:blur(21.85px);clip-path:url(#bgblur_0_5223_149_clip_path);height:100%;width:100%"></div></foreignObject><g opacity="0.91" filter="url(#filter0_d_5223_149)" data-figma-bg-blur-radius="43.6996">
<rect x="26.8652" y="26.8652" width="68.5761" height="68.5761" rx="24.3127" fill="#A6A6A6" fill-opacity="0.23" shape-rendering="crispEdges"/>
<rect x="26.8652" y="26.8652" width="68.5761" height="68.5761" rx="24.3127" fill="#333333" style="mix-blend-mode:color-dodge" shape-rendering="crispEdges"/>
<rect x="27.2187" y="27.2187" width="67.8691" height="67.8691" rx="23.9592" stroke="white" stroke-opacity="0.1" stroke-width="0.70697" shape-rendering="crispEdges"/>
</g>
<path d="M60.6277 47.878C61.0318 47.9353 61.5809 48.2823 61.7734 48.6527L71.7543 72.587C72.2526 73.8715 70.9859 75.2264 69.6766 74.7766L60.3479 70.24L51.0543 74.7766C49.7615 75.2223 48.5031 73.8998 48.9615 72.6242L58.9775 48.6196C59.172 48.2671 59.7129 47.9332 60.1026 47.8773C60.218 47.8608 60.5129 47.8614 60.6277 47.878Z" fill="white" fill-opacity="0.7"/>
<defs>
<filter id="filter0_d_5223_149" x="-16.8344" y="-16.8344" width="155.975" height="155.975" filterUnits="userSpaceOnUse" color-interpolation-filters="sRGB">
<feFlood flood-opacity="0" result="BackgroundImageFix"/>
<feColorMatrix in="SourceAlpha" type="matrix" values="0 0 0 0 0 0 0 0 0 0 0 0 0 0 0 0 0 0 127 0" result="hardAlpha"/>
<feMorphology radius="2.82788" operator="dilate" in="SourceAlpha" result="effect1_dropShadow_5223_149"/>
<feOffset/>
<feGaussianBlur stdDeviation="12.0185"/>
<feComposite in2="hardAlpha" operator="out"/>
<feColorMatrix type="matrix" values="0 0 0 0 0 0 0 0 0 0 0 0 0 0 0 0 0 0 0.25 0"/>
<feBlend mode="normal" in2="BackgroundImageFix" result="effect1_dropShadow_5223_149"/>
<feBlend mode="normal" in="SourceGraphic" in2="effect1_dropShadow_5223_149" result="shape"/>
</filter>
<clipPath id="bgblur_0_5223_149_clip_path" transform="translate(16.8344 16.8344)"><rect x="26.8652" y="26.8652" width="68.5761" height="68.5761" rx="24.3127"/>
</clipPath></defs>
</svg>
