<svg width="123" height="123" viewBox="0 0 123 123" fill="none" xmlns="http://www.w3.org/2000/svg">
<foreignObject x="-16.8344" y="-16.8344" width="155.975" height="155.975"><div xmlns="http://www.w3.org/1999/xhtml" style="backdrop-filter:blur(21.85px);clip-path:url(#bgblur_0_5196_9_clip_path);height:100%;width:100%"></div></foreignObject><g opacity="0.91" filter="url(#filter0_d_5196_9)" data-figma-bg-blur-radius="43.6996">
<rect x="26.8652" y="26.8652" width="68.5761" height="68.5761" rx="24.3127" fill="#A6A6A6" fill-opacity="0.23" shape-rendering="crispEdges"/>
<rect x="26.8652" y="26.8652" width="68.5761" height="68.5761" rx="24.3127" fill="#333333" style="mix-blend-mode:color-dodge" shape-rendering="crispEdges"/>
<rect x="27.2187" y="27.2187" width="67.8691" height="67.8691" rx="23.9592" stroke="white" stroke-opacity="0.1" stroke-width="0.70697" shape-rendering="crispEdges"/>
</g>
<path d="M62.2064 43.8652C68.8924 44.3567 74.3452 49.7272 74.7139 56.3941C75.1163 63.6576 67.9281 72.7267 63.0466 77.7237C62.8123 77.9634 61.7051 79.1133 61.5109 79.1751C61.2626 79.2544 61.1179 79.2083 60.9135 79.0681C60.5587 78.8247 59.8885 78.0704 59.5487 77.7237C54.6653 72.7331 47.4799 63.6521 47.8814 56.3941C48.2473 49.7926 53.7122 44.2968 60.3888 43.8652H62.2064ZM60.7249 51.0642C55.9536 51.482 53.5143 56.9667 56.3774 60.7696C59.0548 64.3271 64.7102 63.8651 66.7611 59.9258C68.9904 55.6435 65.5615 50.641 60.7249 51.0642Z" fill="#DCD9D9"/>
<defs>
<filter id="filter0_d_5196_9" x="-16.8344" y="-16.8344" width="155.975" height="155.975" filterUnits="userSpaceOnUse" color-interpolation-filters="sRGB">
<feFlood flood-opacity="0" result="BackgroundImageFix"/>
<feColorMatrix in="SourceAlpha" type="matrix" values="0 0 0 0 0 0 0 0 0 0 0 0 0 0 0 0 0 0 127 0" result="hardAlpha"/>
<feMorphology radius="2.82788" operator="dilate" in="SourceAlpha" result="effect1_dropShadow_5196_9"/>
<feOffset/>
<feGaussianBlur stdDeviation="12.0185"/>
<feComposite in2="hardAlpha" operator="out"/>
<feColorMatrix type="matrix" values="0 0 0 0 0 0 0 0 0 0 0 0 0 0 0 0 0 0 0.25 0"/>
<feBlend mode="normal" in2="BackgroundImageFix" result="effect1_dropShadow_5196_9"/>
<feBlend mode="normal" in="SourceGraphic" in2="effect1_dropShadow_5196_9" result="shape"/>
</filter>
<clipPath id="bgblur_0_5196_9_clip_path" transform="translate(16.8344 16.8344)"><rect x="26.8652" y="26.8652" width="68.5761" height="68.5761" rx="24.3127"/>
</clipPath></defs>
</svg>
